<svg viewBox="-27.613128491620046 97.5 1201.9832402234638 926.2499999999998" fill="none" xmlns="http://www.w3.org/2000/svg" xmlns:xlink="http://www.w3.org/1999/xlink" overflow="visible" width="1201.9832402234638px" height="926.2499999999998px"><g id="Master/Character/Standing"><g id="Lower Body" transform="translate(0 569) scale(1 1)"><g id="Lower Body/Jump"><g id="Assets 52"><path id="SKIN" fill-rule="evenodd" clip-rule="evenodd" d="M145.849 160.126L90.7446 147.579L57.6826 214.212L140.254 236.253L145.849 160.126Z" fill="white"/><path id="Fill 2" fill-rule="evenodd" clip-rule="evenodd" d="M55.5777 214.481C55.6017 214.417 55.6307 214.353 55.6607 214.291L88.6437 146.439C89.0777 145.563 90.0537 145.097 91.0077 145.307L146.097 157.468C147.244 157.721 147.968 158.857 147.715 160.003C147.454 161.15 146.326 161.874 145.18 161.622L91.7147 149.819L60.7767 213.547L141.325 234.149C142.488 234.315 143.295 235.393 143.129 236.555C142.962 237.722 141.883 238.526 140.723 238.359L57.2647 217.34C56.5887 217.244 56.0007 216.829 55.6837 216.225C55.3987 215.683 55.3627 215.048 55.5777 214.481" fill="#141414"/><path id="Fill 4" fill-rule="evenodd" clip-rule="evenodd" d="M101.778 147.997C102.533 148.726 102.595 149.913 101.923 150.718C101.281 151.484 100.456 152.446 99.4842 153.579C93.5272 160.519 81.1323 174.962 72.3333 190.332C72.3253 190.346 72.3182 190.358 72.3102 190.372C67.1342 199.431 65.0613 208.813 66.4723 216.794C66.5843 217.428 66.3823 218.076 65.9333 218.54C43.9813 241.007 28.1202 257.238 10.6202 265.985C7.54425 267.522 -4.80475 272.348 -9.03475 267.876C-10.9898 265.809 -10.7308 262.572 -8.26475 258.257C0.736249 242.503 20.0422 208.512 37.0742 178.521C50.8562 154.256 62.7582 133.3 67.2602 125.421C67.7362 124.589 68.5422 124.053 69.5312 123.912C75.2952 123.09 94.0033 140.481 101.778 147.997" fill="#02bad3"/><path id="Fill 6" fill-rule="evenodd" clip-rule="evenodd" d="M59.4316 121.37L-18.3774 257.544C-19.6704 259.807 -18.8844 262.689 -16.6214 263.982L-15.2674 264.757C-13.0044 266.05 -10.1214 265.264 -8.82843 263L68.9806 126.826C70.2736 124.563 69.4876 121.681 67.2246 120.388L65.8706 119.613C63.6076 118.32 60.7246 119.106 59.4316 121.37" fill="#141414"/><path id="Fill 8" fill-rule="evenodd" clip-rule="evenodd" d="M34.1179 236.239C33.7229 236.929 33.7339 237.813 34.2179 238.51C38.6469 244.884 33.9769 249.599 33.4279 250.115C32.5789 250.918 32.5319 252.26 33.3279 253.117C34.1259 253.971 35.4599 254.027 36.3199 253.234C39.1259 250.65 43.0279 243.737 37.7099 236.083C37.0389 235.118 35.7149 234.88 34.7499 235.55C34.4819 235.736 34.2699 235.973 34.1179 236.239" fill="#141414"/><path id="Fill 10" fill-rule="evenodd" clip-rule="evenodd" d="M47.8828 222.474C47.4878 223.163 47.4988 224.047 47.9828 224.744C52.4118 231.119 47.7418 235.833 47.1938 236.349C46.3428 237.152 46.2968 238.495 47.0928 239.35C47.8918 240.205 49.2258 240.26 50.0858 239.468C52.8918 236.88 56.7928 229.968 51.4748 222.317C50.8048 221.352 49.4798 221.114 48.5148 221.784C48.2468 221.97 48.0348 222.207 47.8828 222.474" fill="#141414"/></g><g id="Assets 53"><path id="SKIN_2" fill-rule="evenodd" clip-rule="evenodd" d="M999.922 297.34L1069.14 357.835L1011.91 402.252L963.407 365.465L999.922 297.34Z" fill="white"/><path id="Fill 14" fill-rule="evenodd" clip-rule="evenodd" d="M1071.32 359.403C1071.27 359.452 1071.22 359.498 1071.17 359.542L1013.78 403.906C1013.02 404.521 1011.94 404.54 1011.16 403.951L966.133 369.962C965.196 369.255 965.01 367.92 965.718 366.982C966.431 366.049 967.759 365.86 968.696 366.566L1012.39 399.552L1066.21 358.089L1002.39 302.226C1001.4 301.592 1001.12 300.275 1001.75 299.288C1002.39 298.296 1003.7 298.014 1004.69 298.649L1070.98 356.102C1071.55 356.471 1071.92 357.093 1071.95 357.774C1071.99 358.385 1071.75 358.977 1071.32 359.403" fill="#141414"/><path id="Fill 16" fill-rule="evenodd" clip-rule="evenodd" d="M1003.09 398.56C1002.71 397.583 1003.15 396.478 1004.09 396.026C1005 395.595 1006.15 395.065 1007.5 394.44C1015.81 390.608 1033.09 382.636 1047.49 372.324C1047.5 372.314 1047.51 372.306 1047.52 372.296C1056 366.214 1061.79 358.546 1063.83 350.703C1063.99 350.08 1064.45 349.575 1065.05 349.339C1094.36 338.05 1115.54 329.893 1135.09 329.224C1138.53 329.108 1151.76 329.861 1153.75 335.687C1154.66 338.381 1153.08 341.215 1149.04 344.113C1134.3 354.69 1102.6 377.56 1074.63 397.739C1052 414.066 1032.45 428.165 1025.08 433.456C1024.3 434.014 1023.34 434.165 1022.39 433.882C1016.8 432.23 1007.03 408.63 1003.09 398.56" fill="#02bad3"/><path id="Fill 18" fill-rule="evenodd" clip-rule="evenodd" d="M1030.51 440.398L1157.94 348.971C1160.06 347.452 1160.54 344.503 1159.02 342.386L1158.11 341.119C1156.6 339.001 1153.65 338.516 1151.53 340.035L1024.1 431.462C1021.98 432.982 1021.5 435.93 1023.01 438.047L1023.92 439.315C1025.44 441.433 1028.39 441.918 1030.51 440.398" fill="#141414"/><path id="Fill 21" fill-rule="evenodd" clip-rule="evenodd" d="M1101.34 346.49C1101.99 346.026 1102.35 345.219 1102.2 344.385C1100.82 336.745 1107.03 334.401 1107.74 334.161C1108.85 333.784 1109.45 332.583 1109.08 331.472C1108.72 330.363 1107.53 329.758 1106.41 330.121C1102.79 331.302 1096.36 335.964 1098.01 345.137C1098.22 346.294 1099.32 347.061 1100.48 346.854C1100.8 346.796 1101.09 346.669 1101.34 346.49" fill="#141414"/><path id="Fill 23" fill-rule="evenodd" clip-rule="evenodd" d="M1083.1 353.277C1083.74 352.813 1084.1 352.006 1083.95 351.172C1082.58 343.532 1088.79 341.188 1089.5 340.948C1090.61 340.572 1091.21 339.37 1090.84 338.26C1090.47 337.151 1089.28 336.546 1088.17 336.908C1084.54 338.092 1078.12 342.754 1079.76 351.924C1079.97 353.081 1081.08 353.849 1082.23 353.64C1082.56 353.583 1082.85 353.456 1083.1 353.277" fill="#141414"/></g><g id="Pant"><path id="Fill 25" fill-rule="evenodd" clip-rule="evenodd" d="M821.956 83.3051C759.007 38.5781 644.084 -3.21289 644.084 -3.21289C644.084 -3.21289 468.558 -0.232891 429.335 -0.232891C423.905 50.3531 412.671 111.638 389.293 129.959C353.774 157.797 173.841 154.492 142.832 151.332C136.286 162.243 97.4938 252.447 106.147 324.266C118.671 341.608 443.094 321.197 507.838 276.194C549.047 247.549 568.959 216.501 583.407 175.921C587.536 162.97 591.33 149.89 594.946 136.76C598.824 122.615 602.537 108.405 606.034 94.1681L606.037 94.1581C606.272 93.1981 607.241 92.6121 608.201 92.8471C609.155 93.0811 609.741 94.0421 609.514 94.9971C606.112 109.319 602.507 123.566 598.726 137.784C597.476 142.459 596.195 147.126 594.895 151.79C623.055 164.859 692.725 189.157 727.903 221.521C794.843 283.106 900.17 417.356 909.614 421.403C974.511 393.714 1005.64 326.188 1020.03 299.624C1013.33 284.626 896.975 136.608 821.956 83.3051" fill="#141414"/><g id="line"><path fill-rule="evenodd" clip-rule="evenodd" d="M521.465 35.315C521.655 34.156 522.745 33.37 523.908 33.56C525.067 33.75 525.852 34.844 525.662 36.003C521.051 64.132 502.914 91.001 476.605 91.001C475.089 91.001 473.547 90.911 471.977 90.728C464.65 114.988 450.948 145.431 425.477 169.521C400.325 193.309 341.868 206.3 251.73 208.132C244.528 208.279 237.398 208.344 230.414 208.344C172.561 208.344 124.464 203.861 123.927 203.81C122.758 203.7 121.899 202.662 122.01 201.493C122.121 200.324 123.162 199.466 124.327 199.576C126.72 199.802 364.243 221.582 422.554 166.431C477.249 114.7 477.477 31.967 477.473 31.137C477.467 29.963 478.414 29.006 479.589 29H479.6C480.769 29 481.72 29.944 481.726 31.115C481.731 31.981 481.762 52.661 474.885 80.191C474.371 82.248 473.804 84.38 473.189 86.566C492.831 88.396 515.527 71.538 521.465 35.315ZM881.74 299.552C907.746 327.353 933.392 355.5 958.115 384.48C958.645 385.101 958.571 386.035 957.95 386.564C957.329 387.093 956.396 387.02 955.867 386.399L955.864 386.396C931.08 357.577 905.346 329.557 879.256 301.889C853.117 274.265 826.582 247.008 799.57 220.249C786.031 206.907 772.431 193.616 758.468 180.751C755.643 178.081 752.752 175.496 749.86 172.911C749.218 172.336 748.575 171.762 747.933 171.186C747.303 170.632 746.679 170.068 746.055 169.505C744.919 168.479 743.783 167.452 742.609 166.482L737.195 161.909C736.877 161.645 736.561 161.376 736.246 161.107C735.662 160.608 735.078 160.11 734.477 159.646L731.688 157.528C731.272 157.217 730.86 156.9 730.447 156.584C729.006 155.479 727.566 154.374 726 153.482C722.409 151.102 718.509 149.085 714.622 147.074C714.339 146.927 714.056 146.781 713.773 146.634C696.823 138.37 679.025 131.647 661.15 125.296C652.207 122.118 643.206 119.089 634.176 116.149C625.15 113.209 616.077 110.358 606.998 107.646L606.983 107.641C605.857 107.305 605.218 106.121 605.553 104.996C605.889 103.87 607.074 103.23 608.2 103.566C617.351 106.299 626.428 109.153 635.492 112.105C644.553 115.054 653.586 118.093 662.569 121.287C680.533 127.672 698.401 134.41 715.668 142.827C715.97 142.984 716.273 143.14 716.575 143.296C720.549 145.351 724.523 147.406 728.322 149.918C729.98 150.867 731.474 152.021 732.969 153.174C733.391 153.501 733.814 153.827 734.24 154.148L737.123 156.358C737.737 156.836 738.321 157.338 738.904 157.84C739.228 158.117 739.551 158.395 739.879 158.669L745.346 163.326C746.535 164.317 747.672 165.352 748.81 166.388C749.436 166.958 750.061 167.527 750.695 168.089C751.372 168.701 752.049 169.312 752.727 169.923C755.594 172.507 758.461 175.091 761.25 177.75C775.22 190.724 788.785 204.087 802.293 217.505C829.238 244.412 855.685 271.796 881.74 299.552Z" fill="white" style="mix-blend-mode:soft-light"/></g></g></g></g><g id="Upper Body" transform="translate(272 187) scale(1 1)"><g id="Upper Body/Say Hi"><g id="hand2"><path id="SKIN" fill-rule="evenodd" clip-rule="evenodd" d="M435.137 445.911C440.067 461.953 455.928 517.507 452.02 534.021C447.087 554.875 444.67 569.462 451.674 571.761C459.482 574.322 464.26 563.401 467.53 561.641C468.739 560.991 470.545 563.645 475.134 569.333C484.476 580.913 493.016 589.407 499.246 585.435C503.892 582.474 500.203 576.289 500.203 576.289C500.203 576.289 509.076 588.647 516.736 585.514C520.4 584.015 522.731 581.35 517.489 573.037C521.596 579.21 529.13 581.707 532.587 577.003C533.634 575.578 535.485 572.474 530.621 563.73C536.633 569.507 541.554 560.209 539.451 553.651C534.549 538.353 522.399 530.354 512.582 515.224C503.647 501.454 492.565 436.893 492.565 436.893" fill="white"/><path id="Assets 112" fill-rule="evenodd" clip-rule="evenodd" d="M540.57 553.065C535.842 536.651 519.969 526.999 512.365 512.4C505.554 499.323 498.025 454.522 494.661 436.534C494.203 433.869 490.007 434.467 490.469 437.253C494.815 461.534 499.044 485.878 507.173 509.26C509.245 515.308 513.219 520.527 517.206 525.419C524.581 534.542 533.359 542.461 537.195 553.686C538.891 556.821 537.092 566.361 532.304 562.621C530.178 559.768 516.792 541.08 513.459 545.586C513.009 546.396 513.301 547.418 514.111 547.867C520.418 552.042 524.774 559.114 529.199 565.161C536.574 576.971 527.009 582.593 519.031 572.02C517.217 569.744 504.45 550.138 502.003 553.761C501.399 554.413 501.445 555.434 502.103 556.03C507.468 561.316 511.755 567.808 515.947 574.053C517.233 576.106 518.733 578.736 518.703 581.037C518.69 582.229 517.708 583.062 516.562 583.579C513.406 585.123 510.26 583.372 507.413 581.169C503.419 579.129 489.711 557.512 486.711 561.006C486.096 561.66 486.138 562.694 486.802 563.296C491.185 567.5 495.055 572.589 498.725 577.481C499.952 579.856 500.441 583.009 497.692 584.122C490.967 586.359 482.95 575.17 478.767 570.634C476.839 568.312 474.746 565.617 472.835 563.239C471.372 561.577 469.308 558.424 466.477 559.896C462.124 562.796 459.767 569.341 454.322 570.022C450.593 570.253 449.674 566.907 449.612 563.473C449.63 553.759 452.719 544.117 454.905 534.666C456.019 529.577 455.628 524.325 455.165 519.519C452.104 494.086 444.946 469.552 437.171 445.286C436.364 442.803 432.336 443.83 433.105 446.536C439.551 470.714 447.798 494.891 450.658 519.755C451.1 524.915 451.172 530.378 449.977 535.148C448.567 543.932 439.472 570.886 451.562 573.913C458.965 575.993 463.781 568.452 467.964 563.877C475.416 571.654 483.926 586.501 495.286 588.282C498.839 588.515 502.737 586.229 503.307 582.515C506.33 585.251 509.844 587.825 514.194 587.858C518.402 587.878 523.137 584.504 522.314 579.877C531.437 584.81 538.001 575.914 534.513 567.493C541.304 566.371 541.918 558.349 540.57 553.065" fill="#141414"/></g><g id="hand1"><path id="SKIN_2" fill-rule="evenodd" clip-rule="evenodd" d="M-55.7527 83.0046C-61.9147 79.7036 -63.7267 93.8256 -56.7137 104.755C-65.9087 97.3746 -87.9907 79.3866 -95.6027 83.6806C-103.295 88.0196 -91.8557 100.445 -91.8557 100.445C-99.7067 96.8466 -109.099 91.7526 -111.381 97.8806C-113.84 104.485 -100.469 112.517 -100.469 112.517C-110.407 109.353 -113.336 110.227 -114.644 114.261C-116.739 120.721 -103.413 127.237 -103.413 127.237C-109.704 126.511 -114.944 133.06 -99.5557 143.184C-82.5827 154.35 -47.4047 178.921 -19.4567 214.078C-15.4637 219.1 30.8493 208.431 59.3943 183.158C3.49927 143.983 -47.7787 87.2756 -55.7527 83.0046" fill="white"/><path id="Assets 113" fill-rule="evenodd" clip-rule="evenodd" d="M47.3776 171.758C7.46564 142.017 -30.7474 102.362 -54.7484 81.1291C-63.6974 77.8681 -64.6014 89.1361 -62.2164 97.6911C-76.5704 86.5761 -89.9654 78.0551 -96.6494 81.8291C-101.808 84.6211 -100.824 90.7661 -98.2194 95.2121C-111.129 88.3481 -119.528 98.3501 -109.083 108.486C-112.871 108.358 -115.417 109.751 -116.668 113.605C-118.359 118.82 -113.241 123.532 -109.059 126.383C-113.904 130.664 -113.257 136.245 -100.726 144.96C-70.4064 164.906 -45.1694 186.719 -25.7164 209.792C-5.07737 213.787 -87.7554 145.714 -98.3884 141.408C-107.619 135.192 -110.672 129.475 -103.894 129.335L-90.5144 134.768C-88.7624 135.505 -87.5484 132.826 -89.2554 131.996C-89.2704 131.986 -102.465 125.339 -102.478 125.327C-106.284 123.46 -113.771 118.46 -112.622 114.917C-112.042 113.13 -111.439 111.285 -101.321 114.478L-83.6384 124.55C-81.8204 125.619 -80.1334 122.8 -81.9304 121.702C-87.8704 116.912 -110.467 107.15 -109.389 98.6241C-106.983 94.3411 -97.9834 100.386 -92.8414 102.332C-92.8414 102.333 -75.5544 112.475 -75.5544 112.475C-74.8134 112.908 -73.8504 112.691 -73.3744 111.965C-72.8824 111.215 -73.0924 110.208 -73.8424 109.716L-90.4544 98.8231C-93.1044 95.4311 -98.9434 88.6151 -94.5594 85.5331C-88.3794 82.0481 -66.0504 99.9851 -58.7124 105.879C-57.5574 107.55 -56.6504 110.191 -56.7484 112.197C-58.9344 120.07 -58.0474 130.596 -50.8304 135.659C-49.7044 136.422 -48.4134 134.709 -49.5094 133.849C-49.9064 133.527 -50.4304 133.268 -50.6024 132.793C-50.8104 132.222 -57.1744 124.052 -54.0154 116.463C-53.1754 114.445 -51.9314 112.184 -52.4984 110.053C-52.8814 107.704 -53.7614 105.651 -54.9254 103.607C-59.7984 96.3281 -60.5464 84.0561 -56.7594 84.8791C-33.2484 106.388 5.00764 145.286 44.8066 175.146C46.9276 176.825 49.6386 173.409 47.3776 171.758" fill="#141414"/></g><path id="Assets 114" fill-rule="evenodd" clip-rule="evenodd" d="M340.637 107.374C340.266 109 339.727 110.72 338.929 112.48C338.594 113.218 337.867 113.655 337.106 113.655C336.83 113.655 336.549 113.597 336.281 113.476C335.275 113.02 334.829 111.835 335.285 110.829C336.527 108.089 337.053 105.433 337.245 103.226C337.865 63.7968 203.38 52.9738 199.164 108.586C199.771 111 200.794 113.797 202.507 115.744C203.236 116.573 203.156 117.837 202.327 118.567C201.947 118.901 201.476 119.065 201.006 119.065C200.451 119.065 199.899 118.836 199.504 118.387C197.969 116.643 196.891 114.459 196.125 112.319C182.998 115.336 165.73 121.142 153.496 129.994C125.87 149.982 99.8862 185.251 92.2452 196.075C94.9442 198.552 97.5672 201.097 100.082 203.737C103.003 206.795 105.811 209.914 108.525 213.19C109.006 213.77 108.925 214.63 108.345 215.111C107.783 215.576 106.959 215.515 106.471 214.986L106.451 214.962C103.666 211.929 100.717 208.967 97.7082 206.122C95.2142 203.755 89.9872 199.329 89.9872 199.329L0.191185 132.121L-65.5078 205.276C-65.5078 205.276 41.0852 310.517 90.1902 313.324C114.337 314.703 138.588 292.265 158.203 276.381C152.178 345.666 153.695 399.783 153.695 399.783L388.785 398.536C388.785 398.536 377.591 328.898 372.385 261.96C371.977 256.714 385.39 312.441 385.39 312.441L422.947 492.43L514.441 466.127C514.441 466.127 461.555 248.712 454.644 224.698C425.94 124.951 357.138 113.744 356.915 113.211C356.915 113.211 348.232 109.5 340.637 107.374Z" fill="#02bad3"/><g id="neck"><path id="SKIN_3" fill-rule="evenodd" clip-rule="evenodd" d="M245.648 43.0266C245.648 43.0266 245.565 76.7776 245.565 93.8716C245.565 106.451 234.696 103.432 219.379 108.565C222.928 126.319 233.523 137.894 278.951 138.562C307.681 138.985 319.088 130.112 324.615 111.691C309.055 104.326 299.097 106.451 299.097 93.8716C299.097 76.7776 299.014 43.0266 299.014 43.0266" fill="white"/><path id="Assets 115" fill-rule="evenodd" clip-rule="evenodd" d="M325.016 110.846C321.803 109.29 318.478 107.971 315.129 106.803C311.803 105.61 308.367 104.638 305.432 103.109C303.989 102.326 302.73 101.367 301.896 100.128C301.06 98.885 300.726 97.327 300.531 95.738C300.517 94.897 300.436 94.144 300.465 93.236L300.494 90.593L300.552 85.307L301.016 43.022C301.016 43.008 301.016 42.982 301.016 42.968C300.998 41.864 300.089 40.982 298.984 41C297.88 41.017 296.998 41.927 297.016 43.032L297.618 85.308L297.694 90.593L297.731 93.236C297.723 94.09 297.829 95.094 297.878 96.013C298.15 97.892 298.613 99.865 299.803 101.555C300.989 103.231 302.66 104.392 304.323 105.238C307.7 106.876 311.125 107.718 314.449 108.825C317.782 109.894 321.047 111.097 324.217 112.534L324.224 112.537C324.684 112.745 325.228 112.55 325.449 112.094C325.674 111.629 325.48 111.071 325.016 110.846" fill="#141414"/><path id="Assets 116" fill-rule="evenodd" clip-rule="evenodd" d="M245.672 41.0443C244.568 41.0323 243.662 41.9173 243.65 43.0223C243.493 57.0123 243.468 71.0033 243.537 84.9933L243.555 90.2403C243.545 91.9523 243.607 93.8453 243.52 95.3103C243.415 96.8453 243.054 98.2423 242.318 99.2953C241.611 100.367 240.441 101.151 239.014 101.758C236.124 102.94 232.623 103.553 229.208 104.337C225.767 105.106 222.302 106.039 218.955 107.295C218.307 107.542 217.941 108.253 218.141 108.929C218.351 109.639 219.097 110.044 219.806 109.834C223.095 108.868 226.447 108.176 229.862 107.569C231.57 107.259 233.295 106.978 235.051 106.634C236.804 106.288 238.597 105.901 240.415 105.186C241.321 104.821 242.235 104.377 243.109 103.781C243.983 103.187 244.795 102.409 245.44 101.517C246.758 99.7123 247.282 97.5873 247.465 95.6583C247.57 94.6763 247.567 93.7053 247.574 92.8633L247.591 90.2413L247.626 84.9953C247.74 71.0073 247.761 57.0203 247.65 43.0313C247.64 41.9453 246.763 41.0563 245.672 41.0443" fill="#141414"/></g><g id="Assets 117"><path id="path-2" fill-rule="evenodd" clip-rule="evenodd" d="M307.002 159.755C307.002 155.312 303.4 151.709 298.956 151.709C294.513 151.709 290.91 155.312 290.91 159.755C290.91 163.507 293.482 166.65 296.956 167.54V202.651C296.956 203.756 297.852 204.651 298.956 204.651C300.061 204.651 300.956 203.756 300.956 202.651V167.54C304.43 166.65 307.002 163.507 307.002 159.755" fill="white"/><path id="path-1" fill-rule="evenodd" clip-rule="evenodd" d="M257.661 158.797C257.661 154.353 254.059 150.751 249.616 150.751C245.172 150.751 241.57 154.353 241.57 158.797C241.57 162.549 244.141 165.692 247.616 166.582V226.739C247.616 227.844 248.511 228.739 249.616 228.739C250.72 228.739 251.616 227.844 251.616 226.739V166.582C255.09 165.692 257.661 162.549 257.661 158.797" fill="white"/></g></g></g><g id="Head" transform="translate(439 92) scale(1 1)"><g id="Head/Short Hair"><path id="SKIN" fill-rule="evenodd" clip-rule="evenodd" d="M105 47C69.9999 47 43.9999 73 38.9999 97C27.9999 97 19.9999 104 19.9999 114C19.9999 120.363 17.9999 132 33.9999 138C37.9999 170 74.0918 193.643 108.246 185.279C157.247 173.279 153.267 142 150 105C146.733 68 140 47 105 47Z" fill="white"/><path id="Combined Shape" fill-rule="evenodd" clip-rule="evenodd" d="M59.7966 172.591C72.4606 182.96 90.0736 186.639 112.149 183.525C122.537 182.06 130.727 177.081 136.492 168.727C146.917 153.624 149.02 127.832 142.264 97.9648C136.985 74.6238 131.002 63.1268 121.418 57.8318C119.636 60.1228 117.139 62.4608 113.676 64.7508C103.017 71.7998 94.8976 71.7948 87.0216 71.7788H86.9469C79.9422 71.7787 72.7073 71.7787 63.0676 76.8068C48.9236 84.1838 44.2626 108.704 44.2166 108.951C44.0616 109.795 43.3856 110.446 42.5356 110.569C42.4396 110.582 42.3436 110.589 42.2486 110.589C41.5036 110.589 40.8096 110.173 40.4656 109.495C39.7086 108.001 38.2456 106.493 36.1686 105.029C34.5346 104.441 32.9926 104.135 31.5786 104.135C29.7486 104.135 28.1246 104.626 26.7656 105.606C24.0416 107.572 22.4686 111.439 22.6596 115.698C22.9646 122.476 25.9476 130.555 38.4246 130.555C39.4836 130.555 40.3596 131.38 40.4216 132.438C40.7706 138.422 43.2016 159.003 59.7966 172.591ZM122.887 33.2148C135.18 35.1818 149.68 47.4178 150.91 71.6208C152.885 110.482 163.653 121.952 174.575 133.585C176.683 135.831 178.797 138.082 180.855 140.538C192.825 154.823 195.493 193.578 161.645 191.081C149.558 212.137 117.804 205.488 115.058 187.089C114.285 187.239 113.504 187.374 112.707 187.486C107.448 188.228 102.421 188.599 97.6366 188.599C91.6936 188.599 79.9999 188 74.9999 186C73.9999 193 69.4706 212.025 45.5506 206.237C24.3286 218.099 -15.5654 210.277 -14.9934 171.97C-14.754 155.9 -10.935 150.122 -5.68336 142.176C-0.562088 134.427 5.92157 124.617 11.7766 101.192C23.6356 53.7458 52.7676 16.5998 94.1246 18.0408C112.972 18.6978 120.182 25.1018 122.887 33.2148ZM35.3669 115.915C35.1489 120.052 31.5159 119.968 30.5029 119.259C28.0769 117.561 29.3829 111.775 31.3529 111.383C33.1139 111.032 35.5839 111.779 35.3669 115.915Z" fill="#141414"/></g></g><g id="Face" transform="translate(499 178) scale(1 1)"><g id="Face/Happy"><path id="Happy" fill-rule="evenodd" clip-rule="evenodd" d="M28.2306 19.1149C27.9276 19.0909 27.4006 19.0529 26.9546 19.0459C26.6004 19.0306 26.2392 19.0399 25.8777 19.0491C25.7656 19.0519 25.6535 19.0548 25.5416 19.0569C24.5906 19.1039 23.6326 19.1709 22.6836 19.3199C20.7916 19.6309 18.8906 20.0459 17.0996 20.7939C15.3156 21.5319 13.5216 22.3529 11.9156 23.5119C10.3495 24.4885 8.95584 25.7236 7.53129 26.986L7.2006 27.2789L7.1066 27.3619C6.5836 27.8259 5.7816 27.7769 5.3176 27.2529C4.9206 26.8039 4.8996 26.1509 5.2316 25.6809C5.35826 25.502 5.48428 25.3217 5.61063 25.141C6.12273 24.4085 6.64007 23.6685 7.2256 22.9819C7.40976 22.7841 7.59172 22.5831 7.77402 22.3817L7.77412 22.3816C8.35009 21.7454 8.92952 21.1054 9.5926 20.5479C11.2736 19.0099 13.2106 17.7219 15.2756 16.6899C17.3466 15.6659 19.5596 14.8869 21.8466 14.4659C22.9886 14.2479 24.1466 14.0949 25.3156 14.0269C25.4029 14.0245 25.4902 14.022 25.5774 14.0194C26.0776 14.0048 26.5774 13.9902 27.0866 14.0089C27.7016 14.0179 28.2356 14.0559 28.9866 14.1589C30.3556 14.3469 31.3126 15.6099 31.1246 16.9779C30.9436 18.2969 29.7666 19.2339 28.4566 19.1329L28.2306 19.1149ZM75.1516 34.2331L75.1518 34.2333C75.311 34.3531 75.4613 34.4662 75.5939 34.5578L75.9109 34.7778C76.3449 35.0758 76.9209 35.1428 77.4319 34.9038C78.1989 34.5438 78.5299 33.6308 78.1699 32.8638C77.7989 32.0708 77.4159 31.5258 76.9419 30.9228C76.4709 30.3458 75.9229 29.8268 75.3219 29.3548C74.1049 28.4208 72.6519 27.7598 71.0739 27.4608C69.4989 27.1608 67.7849 27.2648 66.2629 27.8108C64.7239 28.3298 63.4249 29.2648 62.3939 30.3228C61.7669 30.9658 61.6329 31.9778 62.1289 32.7748C62.7129 33.7128 63.9459 33.9988 64.8839 33.4148L64.9939 33.3468C65.8869 32.7908 66.7609 32.3488 67.6369 32.1258C68.5109 31.8798 69.3859 31.8518 70.2919 31.9678C71.1909 32.1238 72.1249 32.4158 73.0069 32.8758C73.4559 33.0988 73.9009 33.3648 74.3399 33.6578C74.6089 33.8245 74.892 34.0377 75.1516 34.2331ZM15.3559 33.1489C14.7779 33.8689 14.2989 34.5439 13.8429 35.4509C13.5609 36.0129 13.6899 36.7149 14.1939 37.1339C14.7799 37.6229 15.6529 37.5439 16.1409 36.9569L16.2449 36.8319C16.6249 36.3769 17.1549 35.8029 17.6759 35.3659C18.2069 34.9119 18.7589 34.4969 19.3429 34.1719C20.5099 33.5159 21.7289 33.1369 22.9569 33.1219C23.2679 33.1219 23.5629 33.1339 23.8859 33.1719C24.0074 33.1897 24.1309 33.2013 24.2541 33.2129C24.4637 33.2326 24.6724 33.2522 24.8689 33.3019C25.5169 33.3989 26.1039 33.6059 26.6549 33.8319C27.2089 34.0499 27.6909 34.3549 28.1089 34.6979L28.1793 34.7601C28.3569 34.9166 28.5327 35.0714 28.6749 35.2419C28.7544 35.3279 28.821 35.4172 28.8844 35.5021L28.8999 35.5229L28.9889 35.6479C28.9955 35.6549 29.0061 35.6721 29.0147 35.686C29.0293 35.7099 29.038 35.724 29.0109 35.6609C29.5219 36.8059 30.8639 37.3199 32.0099 36.8089C33.1549 36.2979 33.6679 34.9559 33.1569 33.8109C33.0454 33.569 32.9922 33.4763 32.9243 33.3582L32.9243 33.3582L32.8909 33.2999C32.8277 33.1864 32.7665 33.0933 32.7026 32.9962L32.7026 32.9961L32.6807 32.9629L32.6539 32.9219C32.4899 32.6889 32.3219 32.4649 32.1429 32.2599C31.7879 31.8419 31.4029 31.4719 30.9899 31.1399C30.1599 30.4899 29.2469 29.9779 28.3059 29.6319C27.3619 29.3069 26.4009 29.0749 25.4599 28.9929C25.1383 28.9442 24.8236 28.9348 24.5093 28.9255C24.3593 28.9211 24.2094 28.9166 24.0589 28.9079C23.5839 28.9009 23.0799 28.9419 22.5939 29.0009C20.6349 29.2639 18.7769 30.0669 17.3229 31.2359C16.5879 31.8099 15.9319 32.4529 15.3559 33.1489ZM62.3409 14.7222C61.7589 14.8522 61.2579 14.9932 60.5749 15.2282C59.3989 15.6382 58.7229 16.9002 59.0639 18.1152C59.4179 19.3782 60.7289 20.1162 61.9929 19.7612L62.1749 19.7102C62.4729 19.6262 62.9709 19.5002 63.3969 19.4102C63.8399 19.3092 64.2949 19.2352 64.7519 19.1652L66.1299 18.9912L67.5179 18.9022C69.3719 18.8482 71.2289 18.9972 73.0269 19.4162C74.8229 19.8362 76.5779 20.4692 78.2249 21.3712C79.7834 22.1207 81.1811 23.1734 82.6181 24.2557L82.6202 24.2573C82.7527 24.3571 82.8856 24.4571 83.0189 24.5572L83.1219 24.6352C83.6039 24.9972 84.2849 25.0072 84.7829 24.6202C85.3809 24.1562 85.4889 23.2962 85.0239 22.6992C84.6889 22.2682 84.3369 21.8462 83.9819 21.4242C83.8828 21.3106 83.7865 21.1938 83.6901 21.0769L83.6897 21.0764C83.4332 20.7652 83.1758 20.453 82.8619 20.1972C82.693 20.0451 82.5254 19.8905 82.3574 19.7354C81.7047 19.133 81.046 18.5252 80.2849 18.0432C78.4679 16.6972 76.3519 15.7482 74.1699 15.1012C71.9859 14.4432 69.6999 14.0942 67.4269 14.1352C66.2909 14.1592 65.1539 14.2112 64.0279 14.3992C63.4659 14.4912 62.9029 14.5892 62.3409 14.7222ZM49.8507 33.5661C49.9857 35.7441 50.2307 37.9171 50.7947 39.7871C50.9457 40.2411 51.1127 40.6851 51.3017 41.0401C51.4857 41.3961 51.7177 41.6741 51.8387 41.7411C52.0857 41.9211 52.5727 42.2431 53.0317 42.5291C53.5057 42.8291 54.0127 43.1521 54.5267 43.5211C55.5277 44.2751 56.6517 45.2241 57.3767 46.7691C57.6997 47.5551 57.9277 48.3791 57.8467 49.4021C57.7707 50.4071 57.2947 51.3651 56.7367 51.9991C55.6067 53.2931 54.3797 53.8321 53.2447 54.3281C52.0907 54.7841 50.9707 55.1141 49.8537 55.3671C49.0097 55.5591 48.1707 55.0301 47.9797 54.1861C47.8167 53.4661 48.1767 52.7511 48.8097 52.4371L48.8177 52.4331C49.1421 52.272 49.4659 52.1169 49.7854 51.9638L49.7855 51.9638C50.4477 51.6465 51.0914 51.338 51.6837 51.0041C52.5557 50.5381 53.3537 49.9641 53.6657 49.5191C53.8213 49.2918 53.8326 49.1817 53.8446 49.0661L53.8447 49.0651C53.8567 48.9661 53.7887 48.6711 53.6807 48.4311C53.4677 47.9181 52.8827 47.2931 52.1167 46.6951C51.7357 46.3871 51.3147 46.0811 50.8587 45.7541C50.7412 45.6669 50.624 45.5836 50.5047 45.499C50.1511 45.2479 49.7799 44.9844 49.3327 44.5671C48.6197 43.8781 48.2727 43.1671 47.9977 42.5051C47.7217 41.8371 47.5877 41.1951 47.4717 40.5621C47.0527 38.0461 47.2987 35.6771 47.7847 33.3941C47.9047 32.8291 48.4597 32.4691 49.0237 32.5891C49.4937 32.6891 49.8217 33.0891 49.8497 33.5451L49.8507 33.5661ZM34.3663 68.3769C39.5273 71.3069 60.7703 70.7559 67.5133 66.4909C68.1083 64.4579 67.3563 63.5219 67.3563 63.5219C67.3563 63.5219 47.4373 66.4319 34.3803 64.8919C34.3803 64.8919 33.9463 67.5379 34.3663 68.3769ZM68.0263 60.2979C69.4483 60.0149 70.7503 60.5149 71.5093 61.6299C74.5893 68.6889 64.8293 80.1889 50.8123 80.1239C41.4983 80.6109 30.2033 74.9489 29.7223 68.5269C29.2853 65.7529 31.7743 61.0039 35.6163 61.7009C38.3533 62.1969 44.8963 62.3799 51.2903 62.1519C59.6542 61.8579 67.6242 60.3728 68.0121 60.3005C68.02 60.2991 68.0247 60.2982 68.0263 60.2979Z" fill="#141414"/></g></g><g id="Accessories" transform="translate(491 176) scale(1 1)"><g id="Accessories/Glasses"><path id="Glass" fill-rule="evenodd" clip-rule="evenodd" d="M77.2051 44.2671C67.8901 44.2671 60.8651 37.0141 60.8651 27.3961C60.8651 17.8041 68.3521 10.0001 77.5561 10.0001C87.1111 10.0001 94.5971 17.3391 94.5971 26.7081C94.5971 36.2261 86.6321 44.2671 77.2051 44.2671M25.2251 50.9541C15.8881 50.9541 8.00012 41.9171 8.00012 31.2221C8.00012 21.3761 16.2651 13.3671 26.4241 13.3671C36.0901 13.3671 43.9541 21.9761 43.9541 32.5591C43.9541 42.5301 35.3771 50.9541 25.2251 50.9541M77.5561 6.0001C68.7881 6.0001 61.2971 11.6771 58.2881 19.6551C54.5741 19.3811 47.9351 20.2451 45.0411 20.9321C41.3091 14.0241 34.3641 9.3671 26.4241 9.3671C14.0591 9.3671 4.00012 19.1711 4.00012 31.2221C4.00012 44.3081 13.5211 54.9541 25.2251 54.9541C37.5451 54.9541 47.9541 44.6981 47.9541 32.5591C47.9541 29.7721 47.4951 27.0991 46.6541 24.6211C49.1291 24.1271 54.4851 23.5661 57.2161 23.5671C56.9971 24.8111 56.8651 26.0871 56.8651 27.3961C56.8651 39.1001 65.8001 48.2671 77.2051 48.2671C88.8011 48.2671 98.5971 38.3941 98.5971 26.7081C98.5971 15.0961 89.3541 6.0001 77.5561 6.0001" fill="#FF4B33"/></g></g><g id="Facial Hair" transform="translate(501 234) scale(90 60)"><g id="Facial Hair/None" stroke="none" stroke-width="1" fill="none" fill-rule="evenodd" fill-opacity="0"/></g></g></svg>